<svg width="113" height="46" fill="none" xmlns="http://www.w3.org/2000/svg"><path d="M107.191 19.277l-3.808-1.37c-4.417-1.677-8.834-3.504-13.1-5.636L78.709 6.635C71.093 2.98 62.715 1 54.338 1H10.017c-1.828 0-3.503.762-4.874 1.98C1.182 6.94.878 15.927 1.03 19.43v8.224c0 6.55 5.178 11.728 11.728 11.728h1.218c1.676 3.503 5.179 6.092 9.291 6.092 4.113 0 7.768-2.437 9.291-6.092h49.655c1.675 3.503 5.178 6.092 9.29 6.092 4.113 0 7.769-2.437 9.292-6.092h.304c6.398 0 11.728-5.33 11.728-11.728 0-3.655-2.284-7.006-5.635-8.377h-.001zm-94.586 19.04c-2.59 0-5.026-1.067-6.854-2.59h7.312c0 .914.152 1.828.457 2.59h-.914 0zm19.649-2.742c0 .913-.152 1.828-.457 2.59-.153.456-.305.76-.457 1.218a9.12 9.12 0 01-8.073 4.873c-3.503 0-6.55-1.98-7.92-4.873-.152-.305-.304-.762-.457-1.219-.304-.761-.456-1.675-.456-2.589v-.305c0-.305 0-.61.152-.761.457-4.57 4.265-8.225 8.987-8.225s8.53 3.655 8.986 8.225c0 .304.152.61.152.761-.305.152-.305.152-.457.305h0zm.913 2.741c.305-.913.457-1.675.457-2.589h47.673c0 .914.153 1.828.457 2.59H33.167v0zm67.474-2.741c0 .913-.152 1.828-.457 2.59-.152.456-.304.76-.456 1.218-1.523 2.894-4.57 4.873-7.92 4.873a9.12 9.12 0 01-8.073-4.873c-.153-.305-.305-.762-.457-1.219-.305-.761-.457-1.675-.457-2.589v-.305c0-.305 0-.61.152-.761.457-4.57 4.265-8.225 8.987-8.225s8.529 3.655 8.986 8.225c0 .304.152.61.152.761-.457.152-.457.152-.457.305v0zm.762 2.741c.305-.913.457-1.675.457-2.589h6.397c-1.98 1.523-4.265 2.437-6.854 2.59v0zm7.921-3.807h-7.464c-.457-5.331-4.874-9.443-10.205-9.443-5.33 0-9.748 4.112-10.205 9.443H33.624c-.457-5.331-4.874-9.443-10.205-9.443-5.33 0-9.748 4.112-10.205 9.443H4.837c-1.523-1.828-2.436-4.265-2.436-6.854v-1.523h3.046c.304 0 .61-.305.61-.61 0-.304-.306-.61-.61-.61H2.4v-1.827h5.178c.305 0 .61-.305.61-.61 0-.304-.305-.61-.61-.61H2.096v-2.588c0-3.503.152-12.033 3.807-15.688C6.97 2.37 8.341 1.913 9.863 1.913h44.324c8.224 0 16.45 1.98 23.913 5.483l11.576 5.636c4.264 2.132 8.834 3.96 13.251 5.635l3.808 1.371c1.675.61 2.893 1.828 3.808 3.351h-5.331c-.305 0-.61.305-.61.61 0 .304.305.61.61.61h5.939c.305.913.458 1.827.458 2.74.152 2.895-.762 5.18-2.285 7.159h0z" fill="#FC0012" stroke="#FC0012" stroke-width=".3"/><path d="M91.502 29.332c-2.894 0-5.33 2.133-5.788 5.026 0 .305-.152.61-.152.762v.305c0 .913.305 1.827.761 2.589.305.457.61.761.914 1.218 1.066 1.066 2.59 1.676 4.112 1.676 1.676 0 3.047-.61 4.114-1.676.303-.305.608-.761.913-1.218.457-.762.761-1.675.761-2.59v-.304c0-.305 0-.61-.151-.762 0-2.741-2.438-5.026-5.484-5.026zm4.722 6.245c0 .97-.383 1.9-1.066 2.59-.458.456-.915.913-1.523 1.218-.61.305-1.371.61-2.133.61-.761 0-1.523-.153-2.132-.61-.61-.305-1.067-.762-1.523-1.218-.61-.762-1.067-1.675-1.067-2.59v-.304c0-.305 0-.61.153-.762.457-2.133 2.284-3.808 4.57-3.808 2.284 0 4.263 1.676 4.568 3.808 0 .305.153.61.153.761v.305zM61.651 20.802h-3.046c-.304 0-.61.305-.61.61 0 .304.306.61.61.61h3.047c.304 0 .609-.306.609-.61 0-.305-.305-.61-.61-.61zm-27.722 0h-3.047c-.304 0-.61.305-.61.61 0 .304.306.61.61.61h3.047c.304 0 .61-.306.61-.61 0-.305-.306-.61-.61-.61zm-10.663 8.53c-2.894 0-5.331 2.133-5.789 5.026 0 .305-.152.61-.152.762v.305c0 .913.305 1.827.762 2.589.305.457.61.761.913 1.218 1.067 1.066 2.59 1.676 4.113 1.676 1.676 0 3.046-.61 4.112-1.676.305-.305.61-.761.914-1.218.457-.762.761-1.675.761-2.59v-.304c0-.305 0-.61-.152-.762 0-2.741-2.436-5.026-5.483-5.026h0zm4.722 6.245c0 1.067-.457 1.98-1.067 2.59-.456.456-.913.913-1.523 1.218-.61.305-1.37.61-2.132.61s-1.523-.153-2.133-.61c-.61-.305-1.066-.762-1.523-1.218-.61-.762-1.066-1.675-1.066-2.59v-.304c0-.305 0-.61.152-.762.457-2.133 2.285-3.808 4.57-3.808 2.284 0 4.264 1.676 4.569 3.808 0 .305.152.61.152.761v.305h0zm64.427-18.281l-12.642-6.702C76.575 8.92 73.986 7.7 71.548 6.94c-6.092-1.98-12.337-3.046-18.734-3.046H12.299c-3.96 0-7.159 3.35-7.159 7.463 0 4.569 3.503 8.225 7.92 8.225h78.746c.609 0 1.067-.305 1.219-.914.151-.457-.153-1.066-.61-1.371v0zm-79.507 1.218c-3.655-.152-6.55-3.198-6.55-7.006 0-3.503 2.742-6.245 6.093-6.245h.457v13.251h0zm12.186 0h-11.12V5.111h11.12v13.403zm3.35 0h-2.132V5.111h2.133v13.403zm27.112 0H29.51V5.111h23.304c.914 0 1.828 0 2.741.152v13.251h.001zm1.218 0V5.264c4.874.304 9.748 1.218 14.47 2.894 2.437.761 5.026 1.98 8.072 3.655l12.642 6.702H56.774v0z" fill="#FC0012" stroke="#FC0012" stroke-width=".3"/></svg>