<svg width="123" height="48" fill="none" xmlns="http://www.w3.org/2000/svg"><path d="M112.771 17.066l-31.269-.518c-2.245 0-4.318-.691-6.218-2.073l-8.12-6.047C60.774 3.591 52.827 1 44.707 1 37.623 1 30.54 3.073 24.494 6.874L14.13 13.439c-.346.172-.691.345-1.037.345l-4.664.173c-2.073 0-3.8.69-5.182 2.073C1.863 17.412 1 19.14 1 21.212v6.22c0 7.255 5.874 13.301 13.302 13.301h1.383c1.9 3.974 5.873 6.91 10.537 6.91 4.664 0 8.81-2.763 10.538-6.91h50.444c1.9 3.974 5.873 6.91 10.538 6.91 4.664 0 8.81-2.763 10.537-6.91h.346c7.256 0 13.302-5.873 13.302-13.302.691-5.874-3.628-10.192-9.156-10.365v0zm-97.26 21.94h-.863a11.946 11.946 0 01-10.711-6.738h11.748c-.346 1.037-.518 2.246-.518 3.455 0 1.037.172 2.072.345 3.282h0zm20.903 0c-.172.517-.345.863-.518 1.382-1.728 3.282-5.182 5.528-8.983 5.528a10.346 10.346 0 01-9.156-5.528c-.172-.346-.346-.864-.518-1.383-.346-1.036-.691-2.245-.691-3.454 0-1.21.172-2.42.691-3.455.172-.518.346-.863.518-1.382 1.728-3.283 5.183-5.529 8.983-5.529 3.8 0 7.255 2.246 8.983 5.529.172.345.346.863.518 1.382.346 1.037.691 2.246.691 3.455s-.172 2.245-.518 3.454v0zm50.962 0h-49.58c.346-1.037.518-2.246.518-3.455 0-1.21-.172-2.42-.517-3.455h49.58c-.346 1.037-.519 2.246-.519 3.455s.173 2.245.518 3.454zm20.731 0c-.173.517-.346.863-.519 1.382-1.727 3.282-5.183 5.528-8.983 5.528-3.973 0-7.428-2.246-8.983-5.528-.172-.346-.346-.864-.518-1.383-.345-1.036-.691-2.245-.691-3.454 0-1.21.172-2.42.691-3.455.172-.518.346-.863.518-1.382 1.728-3.283 5.183-5.529 8.983-5.529 3.974 0 7.256 2.246 8.983 5.529.173.345.346.863.519 1.382.345 1.037.691 2.246.691 3.455-.173 1.209-.346 2.245-.691 3.454zm1.381-.173c.346-1.036.519-2.246.519-3.455s-.173-2.418-.519-3.454h10.539c-1.9 4.146-5.874 6.91-10.539 6.91v0zm-.518-8.12c-1.9-3.973-5.873-6.91-10.537-6.91-4.664 0-8.811 2.764-10.539 6.91H37.278c-1.9-3.973-5.874-6.91-10.538-6.91-4.664 0-8.81 2.764-10.538 6.91H3.42a10.057 10.057 0 01-.518-3.282h3.455a.745.745 0 00.691-.691.746.746 0 00-.691-.691H2.9v-4.32h3.455a.745.745 0 00.691-.69.746.746 0 00-.691-.692H3.073c.173-1.382.692-2.763 1.728-3.8 1.037-1.037 2.592-1.555 3.974-1.555h.172l4.665-.172a3.33 3.33 0 001.728-.518l10.363-6.565c5.874-3.628 12.611-5.7 19.349-5.7 7.774 0 15.374 2.591 21.594 7.083l8.12 6.046c2.073 1.554 4.49 2.245 6.91 2.419l31.268.518c3.109.172 5.701 1.727 7.083 4.145h-6.737a.744.744 0 00-.692.692.748.748 0 00.692.69h7.428c.346 1.038.69 2.074.69 3.283 0 1.383-.172 2.592-.69 3.8H108.97z" fill="#FC0012" stroke="#FC0012" stroke-width=".3"/><path d="M103.099 30.715c-1.209-1.21-2.764-1.9-4.665-1.9-1.901 0-3.455.69-4.664 1.9-.346.345-.691.863-1.037 1.382a6.228 6.228 0 00-1.037 3.455c0 1.209.346 2.418 1.037 3.455.346.517.691.863 1.037 1.382 1.209 1.209 2.937 1.9 4.664 1.9 1.727 0 3.456-.691 4.665-1.9.345-.346.691-.864 1.036-1.383.518-1.036 1.037-2.073 1.037-3.454a6.228 6.228 0 00-1.037-3.455c-.345-.518-.691-.864-1.036-1.382zm-.692 8.292c-.517.517-1.036 1.036-1.727 1.382-.692.345-1.555.69-2.419.69-.863 0-1.727-.171-2.418-.69-.69-.346-1.21-.864-1.727-1.383a5.566 5.566 0 01-1.21-3.454c0-1.383.518-2.42 1.21-3.455.517-.518 1.036-1.037 1.727-1.382.69-.346 1.555-.518 2.418-.518.864 0 1.555.172 2.419.518.691.345 1.21.863 1.727 1.382.864.863 1.209 2.073 1.209 3.455.174 1.209-.345 2.418-1.209 3.455zm-57.18-19.006h-3.455a.746.746 0 00-.691.691.745.745 0 00.691.691h3.455a.745.745 0 00.69-.69.745.745 0 00-.69-.692v0zM31.406 30.715c-1.21-1.21-2.764-1.9-4.664-1.9-1.728 0-3.455.69-4.664 1.9-.345.345-.691.863-1.037 1.382a6.228 6.228 0 00-1.036 3.455 6.23 6.23 0 001.036 3.455c.346.517.692.863 1.037 1.382 1.21 1.209 2.937 1.9 4.665 1.9 1.9 0 3.455-.691 4.665-1.9.345-.346.69-.864 1.036-1.383.518-1.036 1.037-2.073 1.037-3.454a6.227 6.227 0 00-1.037-3.455c-.345-.518-.69-.864-1.036-1.382h-.002zm-.691 8.292c-.518.517-1.037 1.036-1.728 1.382-.691.345-1.555.69-2.418.69-.864 0-1.728-.171-2.418-.69-.692-.346-1.21-.864-1.728-1.383a5.566 5.566 0 01-1.21-3.454c0-1.383.518-2.42 1.21-3.455.518-.518 1.036-1.037 1.728-1.382.69-.346 1.554-.518 2.419-.518.864 0 1.554.172 2.418.518.69.345 1.209.863 1.727 1.382.864.863 1.21 2.073 1.21 3.455.172 1.209-.346 2.418-1.21 3.455h0zM65.61 11.022c-3.108-2.592-6.736-4.32-10.71-5.528-3.974-1.21-7.946-1.555-12.093-1.21l-2.246.173c-3.8.345-7.428 1.9-10.365 4.491-1.383 1.21-1.728 2.937-1.21 4.665.52 1.728 2.074 2.764 3.801 2.937l37.142 1.9h.172c.692 0 1.21-.345 1.383-1.037.173-.69 0-1.382-.518-1.727l-5.355-4.664v0zm-32.476 3.973c-1.555 0-2.419-1.036-2.592-2.073-.345-.864-.345-2.246.864-3.283 1.728-1.554 3.8-2.763 6.046-3.454l1.554 8.983-5.873-.173h0zm37.142 1.9l-30.06-1.554-1.727-9.329c.69-.172 1.554-.345 2.245-.345l2.246-.173c.864 0 1.728-.172 2.591-.172 3.11 0 6.047.518 8.983 1.382 3.8 1.21 7.256 2.937 10.192 5.355l5.7 4.492v.172l-.171.172h0z" fill="#FC0012" stroke="#FC0012" stroke-width=".3"/></svg>